<?xml version="1.0" standalone="no"?>
<!DOCTYPE svg PUBLIC "-//W3C//DTD SVG 20010904//EN"
 "http://www.w3.org/TR/2001/REC-SVG-20010904/DTD/svg10.dtd">
<svg version="1.0" xmlns="http://www.w3.org/2000/svg"
 width="859.000000pt" height="814.000000pt" viewBox="0 0 859.000000 814.000000"
 preserveAspectRatio="xMidYMid meet">

<g transform="translate(0.000000,814.000000) scale(0.100000,-0.100000)"
fill="#000000" stroke="none">
<path d="M5637 8005 c-22 -11 -136 -207 -137 -234 0 -8 13 -38 30 -67 l30 -54
-28 -16 c-103 -63 -99 -59 -127 -146 -23 -70 -36 -92 -82 -139 -47 -48 -56
-64 -60 -102 -5 -46 -6 -46 -100 -103 -101 -61 -113 -74 -113 -128 0 -26 -10
-47 -45 -87 -25 -29 -45 -62 -45 -73 0 -11 8 -56 17 -99 16 -75 16 -83 -1
-165 -26 -124 -24 -122 -108 -122 -60 0 -76 -4 -94 -21 -22 -20 -25 -21 -47
-6 -18 11 -27 29 -31 61 -8 54 -34 76 -88 76 -21 0 -38 4 -38 10 0 5 -13 16
-28 24 -24 13 -41 13 -120 1 -127 -19 -142 -29 -142 -96 0 -29 31 -71 60 -81
8 -2 11 -11 7 -21 -5 -13 -15 -15 -57 -10 -58 7 -84 -9 -94 -58 -5 -28 -7 -29
-64 -29 -45 0 -66 -5 -86 -21 -37 -29 -33 -63 19 -144 25 -38 43 -75 40 -83
-3 -7 -5 -21 -5 -30 0 -9 -4 -23 -8 -29 -4 -7 -88 -26 -187 -43 -99 -17 -278
-57 -398 -87 l-219 -57 -166 28 c-92 15 -183 32 -202 37 -22 6 -66 39 -119 88
l-83 78 -8 135 -8 135 -50 75 c-48 71 -52 84 -122 354 -40 153 -78 285 -84
293 -11 14 -104 59 -243 117 l-83 34 -147 -56 c-223 -84 -240 -92 -252 -122
-5 -15 -39 -175 -75 -356 -36 -182 -71 -335 -76 -340 -6 -6 -59 -32 -118 -57
l-107 -46 -112 -154 c-64 -87 -115 -168 -119 -186 -3 -18 -4 -72 -3 -121 l4
-88 108 -137 107 -137 0 -141 0 -142 -90 -119 c-50 -65 -90 -124 -90 -131 0
-44 41 -330 49 -345 8 -15 203 -127 253 -145 9 -3 55 5 102 17 l84 24 39 -24
c57 -35 83 -31 196 36 109 65 109 65 121 -5 15 -86 18 -90 148 -142 67 -27
125 -55 129 -63 4 -8 13 -29 19 -47 9 -25 22 -36 59 -49 25 -10 51 -21 58 -26
6 -5 21 -52 33 -104 12 -51 29 -103 38 -113 9 -11 58 -44 107 -72 81 -47 97
-53 162 -57 l72 -4 34 -53 c34 -51 40 -54 186 -119 83 -36 163 -66 177 -66 16
0 45 14 70 35 46 38 65 43 84 20 20 -24 68 -18 110 15 36 29 42 30 134 30 95
0 97 0 107 -27 5 -14 9 -33 7 -40 -2 -8 -52 -34 -113 -57 -83 -32 -113 -49
-121 -67 -8 -17 -10 -63 -5 -150 l8 -127 107 -142 c120 -160 115 -137 55 -267
l-38 -83 -40 0 c-54 0 -90 -15 -100 -42 -4 -13 -11 -67 -15 -121 -6 -94 -5
-98 17 -121 21 -20 38 -25 118 -31 183 -13 199 -13 220 14 16 20 19 40 19 150
0 125 1 128 31 177 17 27 33 51 35 53 1 1 28 -9 60 -23 69 -32 76 -32 157 -1
l66 25 16 -22 c8 -13 15 -26 15 -30 0 -5 -23 -22 -50 -39 -75 -46 -85 -79 -40
-136 14 -18 17 -36 13 -87 -5 -56 -3 -66 17 -86 18 -18 31 -21 78 -18 l57 3
10 -175 10 -176 64 -93 64 -94 -22 -61 c-12 -33 -21 -69 -21 -78 0 -9 37 -63
81 -120 45 -57 86 -108 91 -115 6 -7 -6 -47 -32 -108 -22 -54 -40 -110 -40
-126 0 -18 14 -44 40 -75 l41 -46 -7 -69 c-6 -64 -5 -72 20 -110 15 -22 25
-47 22 -54 -3 -8 -31 -16 -71 -20 -107 -12 -131 -44 -103 -138 18 -58 45 -66
192 -54 136 11 118 20 186 -90 44 -71 39 -69 222 -78 l127 -7 82 -139 c44 -77
91 -146 102 -154 28 -19 225 -21 250 -3 9 7 33 51 52 97 24 56 56 109 99 160
35 42 68 85 73 96 8 14 8 71 0 187 l-11 167 67 70 c39 40 67 78 67 90 0 12 6
21 13 21 6 -1 50 -32 97 -70 l84 -70 167 0 166 0 27 26 c48 49 68 90 64 136
l-3 43 45 6 c25 3 101 29 169 57 68 29 127 50 131 47 4 -2 10 -44 13 -92 3
-48 9 -96 12 -106 15 -37 93 -59 133 -38 10 5 34 34 55 64 20 29 58 69 83 87
130 93 192 150 222 203 17 30 34 66 37 79 9 36 -26 75 -75 82 -136 20 -117 7
-168 114 l-45 96 17 81 c37 170 41 202 29 260 -22 105 -20 103 -210 175 -94
37 -183 71 -197 78 -15 7 -50 48 -81 97 l-55 85 0 90 c0 60 5 100 14 118 8 15
49 61 91 102 42 41 81 85 86 97 11 29 -18 260 -36 289 -7 12 -68 52 -134 89
-83 47 -121 74 -121 86 0 9 27 70 61 133 l61 116 -3 183 c-2 100 0 187 4 194
4 6 22 16 41 23 27 9 54 5 160 -20 146 -34 163 -36 194 -14 18 13 22 25 22 74
0 32 5 81 11 108 l10 50 82 36 c45 20 134 58 197 84 71 30 121 58 132 73 16
23 16 28 1 98 l-17 73 52 48 c59 55 60 57 37 195 -15 88 -15 90 -72 148 -32
32 -66 63 -75 68 -10 5 -74 14 -143 19 -70 5 -131 12 -136 16 -6 3 -25 39 -44
79 -20 44 -44 80 -60 91 -25 16 -28 16 -78 -4 -29 -12 -57 -22 -63 -22 -5 0
-20 33 -33 73 -37 120 -41 126 -107 173 -35 25 -64 52 -64 60 0 8 20 45 45 82
25 37 45 75 45 85 0 11 -23 71 -51 134 -54 123 -55 131 -23 213 24 64 15 90
-51 135 -30 21 -55 43 -55 49 0 6 11 28 25 48 21 30 25 49 25 104 0 62 -3 71
-30 99 -16 16 -26 35 -22 40 14 22 127 107 166 127 95 47 98 73 22 183 -47 67
-56 86 -61 139 -5 49 -3 70 13 105 28 61 10 103 -49 115 -24 5 -29 10 -29 36
0 41 -42 84 -73 76 -12 -3 -32 -9 -44 -12 -23 -6 -27 2 -38 106 -13 118 -30
130 -176 130 l-100 0 -19 33 c-11 18 -35 40 -53 49 -30 14 -36 24 -50 80 -16
62 -15 65 8 148 31 104 31 121 3 148 -28 26 -101 31 -174 12 -51 -13 -51 -13
-110 23 -53 32 -67 36 -147 39 -52 3 -97 0 -110 -7z m238 -101 c55 -38 79 -41
150 -20 26 8 61 12 76 9 16 -3 29 -6 29 -7 0 -1 -11 -41 -25 -91 -25 -93 -25
-97 6 -207 15 -51 25 -68 42 -74 12 -4 41 -27 65 -53 l42 -46 112 -5 112 -5 7
-30 c4 -16 10 -61 14 -99 8 -79 38 -123 78 -112 68 19 65 19 72 -16 9 -39 32
-68 55 -68 27 0 30 -10 15 -41 -32 -60 -9 -186 49 -272 23 -34 46 -67 49 -74
5 -7 -10 -22 -40 -39 -61 -35 -181 -131 -200 -161 -20 -31 -10 -67 27 -93 43
-30 42 -96 -1 -160 -23 -34 -28 -50 -23 -70 4 -14 8 -43 8 -64 1 -35 -2 -40
-28 -47 -31 -9 -60 3 -111 45 -29 23 -30 25 -16 58 8 18 14 49 15 68 l1 35
-72 3 c-62 2 -75 0 -90 -17 -11 -13 -24 -19 -38 -15 -15 4 -44 -11 -99 -50
l-77 -56 -78 0 c-45 0 -97 -7 -125 -16 -46 -16 -48 -16 -71 6 -21 19 -31 22
-71 16 -37 -5 -52 -2 -74 14 -15 11 -39 20 -53 20 -15 0 -31 9 -40 23 -8 12
-38 30 -66 40 -47 16 -54 23 -72 65 -22 53 -42 72 -75 72 -16 0 -25 9 -33 30
-6 20 -21 34 -39 41 -16 5 -35 21 -43 36 -9 16 -45 41 -101 69 l-88 44 6 54
c4 36 1 77 -11 128 l-18 76 46 57 c38 46 47 64 47 95 0 38 2 40 93 95 107 66
117 77 117 124 0 28 10 45 53 90 42 45 57 71 76 131 29 91 32 95 92 125 89 46
99 77 48 156 l-31 48 33 58 c17 32 41 73 52 91 l20 33 76 -7 c63 -6 85 -13
126 -40z m-3628 -830 c70 -30 133 -61 140 -67 6 -7 43 -134 81 -282 66 -256
73 -275 120 -349 l50 -77 7 -135 7 -135 34 -34 c19 -19 34 -37 34 -41 0 -10
-101 -187 -119 -207 -20 -23 -74 -16 -154 20 l-58 27 -79 -79 c-44 -44 -80
-85 -80 -92 0 -7 18 -23 40 -35 22 -13 40 -30 40 -39 0 -9 13 -36 30 -60 32
-48 37 -84 18 -137 -12 -31 -11 -36 10 -53 16 -13 32 -16 52 -12 23 4 31 1 36
-13 4 -11 14 -27 22 -37 14 -16 13 -20 -11 -45 -26 -27 -27 -32 -27 -145 0
-106 2 -117 20 -127 27 -14 79 -15 113 -1 21 8 29 8 32 -2 10 -33 12 -141 3
-215 -11 -81 -10 -84 14 -110 52 -58 53 -60 27 -85 -13 -13 -29 -32 -35 -43
-11 -19 -12 -18 -83 4 -93 30 -96 30 -178 2 l-69 -23 -31 23 c-24 17 -38 21
-60 15 -15 -4 -53 -8 -82 -9 -50 -1 -55 1 -61 23 -8 34 -52 65 -82 58 -12 -4
-65 -31 -117 -62 -51 -30 -99 -55 -107 -55 -7 0 -28 9 -46 20 -41 25 -60 25
-152 0 l-75 -21 -105 56 c-58 31 -107 64 -110 73 -3 9 -12 79 -21 154 l-16
137 90 120 91 120 0 160 0 160 -52 68 c-29 37 -78 101 -110 141 l-58 73 0 88
c0 99 0 100 148 296 l67 90 105 43 c58 23 113 50 122 60 12 12 39 121 88 362
39 190 76 350 83 357 7 6 82 39 167 71 85 33 156 61 157 61 1 1 59 -24 130
-55z m2265 -532 c19 -27 54 -43 85 -40 23 3 28 -1 34 -32 5 -22 23 -49 48 -72
50 -47 95 -51 131 -13 21 22 32 25 95 25 85 0 99 11 120 90 8 29 15 53 17 55
2 2 39 -14 83 -35 58 -27 84 -45 93 -64 7 -15 25 -32 40 -37 17 -6 34 -23 43
-42 11 -25 22 -33 48 -37 29 -4 36 -11 50 -50 15 -40 25 -48 78 -74 65 -31 78
-46 88 -97 9 -49 -9 -66 -89 -83 -38 -8 -73 -20 -78 -28 -8 -12 -6 -77 8 -254
l6 -72 -44 -29 c-58 -40 -98 -52 -147 -46 -50 7 -85 -13 -108 -62 -9 -19 -20
-35 -23 -35 -4 0 -28 21 -53 46 -38 37 -52 45 -72 40 -17 -4 -76 14 -200 64
-97 38 -191 70 -210 70 -22 0 -45 9 -65 27 -22 18 -69 37 -148 58 l-117 32
-17 48 c-9 26 -24 56 -34 66 -15 16 -15 26 -6 74 13 62 11 70 -35 142 -18 29
-33 57 -33 63 0 5 21 10 48 10 61 0 93 17 111 58 14 31 17 32 58 26 41 -6 46
-4 78 31 50 53 44 99 -16 130 -43 23 -32 38 37 51 82 16 81 16 96 -4z m1915
-308 c3 -9 -2 -31 -11 -50 -26 -55 -21 -70 40 -115 42 -32 63 -42 90 -41 46 2
72 17 80 47 3 14 9 25 11 25 12 0 73 -42 73 -50 0 -5 -9 -32 -20 -60 -11 -28
-20 -62 -20 -76 0 -14 23 -77 51 -139 56 -129 58 -107 -16 -225 -19 -30 -35
-63 -35 -72 0 -9 -10 -20 -22 -24 -33 -9 -55 -32 -63 -61 -3 -14 -17 -40 -31
-58 -32 -42 -30 -65 8 -134 28 -50 31 -62 21 -83 -9 -20 -21 -26 -55 -30 -29
-4 -74 -24 -136 -62 -119 -72 -133 -72 -224 -1 -48 37 -79 55 -99 55 -21 0
-52 20 -118 75 l-90 75 -198 15 c-445 34 -407 28 -462 74 -69 58 -73 65 -77
125 -3 43 1 63 17 91 25 42 61 60 87 44 38 -24 196 57 208 107 4 14 3 53 0 87
-4 34 -9 97 -12 139 -7 88 -6 89 89 103 63 10 78 23 84 78 6 53 26 62 56 27
19 -22 37 -24 84 -11 27 8 34 6 52 -15 25 -28 24 -28 87 -9 27 8 85 15 130 15
l80 0 75 55 c56 43 79 55 97 50 16 -4 32 2 53 20 36 30 106 35 116 9z m-2313
-427 c-1 -69 -7 -141 -14 -161 -10 -30 -8 -40 14 -84 22 -44 23 -52 11 -68
-31 -41 -11 -82 58 -124 31 -18 37 -27 32 -44 -19 -60 -18 -62 33 -99 l49 -37
-4 -72 c-4 -61 -1 -78 17 -106 19 -31 24 -33 67 -31 44 3 46 2 65 -35 27 -52
13 -63 -46 -34 -76 36 -90 15 -75 -117 l4 -40 -65 0 -65 0 -11 52 c-13 58 -27
78 -97 142 -40 37 -55 45 -99 49 -34 3 -68 15 -97 34 -41 26 -52 28 -99 22
-49 -6 -56 -4 -82 21 -25 24 -27 31 -19 54 13 31 4 97 -17 129 -12 19 -23 22
-78 22 -48 0 -69 -5 -89 -20 -16 -13 -40 -20 -69 -20 -25 0 -54 -7 -68 -17
-32 -23 -118 -42 -192 -42 -57 -1 -58 0 -72 34 -12 27 -21 35 -40 35 -26 0
-36 23 -16 35 15 9 12 36 -7 57 -16 18 -16 22 2 76 18 52 26 61 90 105 39 26
71 54 73 61 2 8 -11 30 -27 49 -26 29 -31 43 -31 85 0 28 4 53 9 56 4 3 35 1
68 -5 57 -10 70 -8 280 46 198 51 573 126 598 120 6 -1 9 -51 9 -128z m-1303
73 c38 -31 73 -52 97 -56 20 -3 75 -14 122 -23 l85 -16 5 -67 c4 -51 10 -72
28 -90 12 -14 22 -29 22 -36 0 -6 -26 -29 -58 -51 -70 -47 -75 -53 -96 -115
-20 -61 -20 -90 -2 -105 11 -9 12 -18 3 -41 -13 -33 3 -60 34 -60 12 0 24 -11
30 -27 13 -35 26 -43 71 -43 31 0 37 -4 46 -30 7 -19 23 -34 46 -44 39 -16 66
-59 50 -80 -51 -70 -49 -63 -26 -112 25 -51 27 -45 -45 -156 -25 -38 -55 -73
-69 -78 -13 -5 -38 -25 -55 -45 -17 -19 -34 -35 -38 -35 -4 0 -36 25 -71 55
-36 30 -74 55 -84 55 -11 0 -54 -34 -97 -75 -52 -51 -82 -73 -92 -69 -9 3 -31
25 -50 48 l-35 42 5 154 c3 95 0 161 -6 170 -9 12 -17 12 -61 -4 -41 -15 -57
-16 -76 -7 -23 10 -24 14 -24 114 0 97 1 105 25 127 26 25 33 54 14 66 -6 3
-18 22 -25 41 -14 32 -18 34 -52 31 l-37 -3 -1 77 c0 64 -4 82 -21 100 -12 13
-24 37 -28 55 -4 22 -18 39 -41 53 -19 12 -34 25 -34 28 1 8 50 61 98 106 l31
29 38 -23 c38 -22 143 -43 168 -33 8 2 42 54 76 114 33 60 63 109 66 109 3 0
32 -22 64 -50z m1374 -3 c6 -20 15 -41 20 -46 6 -5 62 -24 125 -41 76 -21 123
-39 140 -55 16 -15 44 -26 75 -30 28 -4 128 -39 224 -77 113 -45 182 -67 197
-64 33 9 138 -108 129 -142 -3 -14 1 -34 10 -48 19 -30 16 -35 -40 -74 -49
-34 -58 -52 -60 -125 0 -27 -6 -60 -13 -72 -7 -12 -12 -31 -12 -42 0 -28 -11
-32 -91 -36 -75 -4 -101 9 -92 44 6 23 -21 77 -45 90 -9 5 -33 12 -53 16 -46
9 -114 -33 -123 -76 -9 -45 -35 -79 -62 -79 -12 0 -25 -4 -28 -9 -3 -5 -36 -7
-73 -5 -65 3 -68 4 -84 36 -14 27 -15 43 -7 93 l9 59 -52 46 c-47 41 -51 48
-40 67 20 38 13 58 -27 81 -21 11 -47 30 -57 42 -18 20 -18 22 -1 54 17 33 17
34 -8 83 -21 39 -25 56 -18 74 5 13 13 82 17 152 7 133 19 158 40 84z m2575
-496 l66 -48 28 -94 c15 -52 35 -102 44 -111 20 -23 66 -22 121 2 24 11 45 19
47 18 1 -2 18 -37 36 -78 19 -41 42 -81 51 -88 10 -8 69 -18 151 -24 l135 -11
54 -51 55 -51 13 -88 12 -88 -53 -54 -53 -54 8 -48 c4 -26 8 -63 9 -81 l1 -33
-194 -84 c-107 -46 -198 -89 -202 -97 -18 -26 -29 -84 -29 -146 0 -46 -4 -64
-15 -68 -8 -3 -72 8 -142 24 l-128 30 -54 -19 c-93 -32 -91 -26 -91 -232 l0
-179 -22 7 c-13 4 -58 11 -101 16 -86 9 -97 13 -97 34 0 8 56 105 125 215 111
178 125 206 125 245 0 35 -6 52 -30 78 -47 54 -37 127 14 107 28 -10 81 11 95
39 6 11 11 32 11 46 0 42 36 85 70 85 35 0 53 26 38 53 -8 15 -4 30 16 67 14
26 26 58 26 70 0 12 -18 76 -41 143 -37 109 -46 127 -89 170 -45 43 -52 47
-98 47 -63 0 -74 12 -59 67 10 39 9 45 -21 93 -39 62 -39 71 -7 118 14 20 25
41 25 47 0 6 7 21 16 33 24 35 61 28 134 -27z m-1567 -96 c23 -20 52 -35 66
-35 73 -2 342 -28 348 -34 4 -4 2 -16 -5 -26 -25 -40 -4 -110 33 -110 16 0 39
-34 55 -83 12 -37 11 -40 -19 -71 -17 -18 -31 -42 -31 -54 0 -26 -41 -72 -64
-72 -9 0 -21 -9 -28 -20 -15 -24 -24 -25 -44 -5 -28 27 -70 19 -100 -20 -18
-24 -34 -35 -53 -35 -14 0 -42 -4 -60 -10 -27 -7 -38 -6 -50 4 -9 8 -35 19
-59 26 -37 9 -46 17 -61 53 -10 23 -26 49 -35 56 -10 8 -23 29 -30 46 -8 17
-30 48 -50 67 -36 35 -36 35 -16 53 11 10 20 28 20 39 0 12 7 31 15 44 9 12
15 36 14 54 -6 85 -2 96 53 133 29 19 54 35 56 35 2 0 22 -16 45 -35z m-1529
-79 c6 -28 5 -50 -4 -74 -12 -33 -11 -35 26 -74 39 -39 40 -39 95 -33 51 6 61
4 106 -24 37 -23 62 -31 95 -31 42 0 49 -4 105 -63 56 -58 61 -67 77 -140 17
-74 17 -80 0 -98 -13 -15 -16 -30 -11 -76 4 -42 2 -63 -8 -77 -20 -27 5 -76
40 -76 42 0 37 -19 -7 -30 -24 -7 -53 -21 -65 -32 -19 -18 -25 -19 -57 -7 -28
10 -48 10 -88 2 -50 -10 -55 -10 -79 13 -33 31 -62 31 -79 -1 -8 -15 -22 -25
-36 -25 -48 0 -54 -9 -54 -75 0 -77 -6 -94 -36 -106 -16 -5 -24 -17 -24 -31 0
-45 -14 -53 -53 -29 -19 11 -49 21 -66 21 -24 0 -34 6 -41 25 -8 20 -16 25
-44 25 -28 0 -40 -7 -62 -35 -22 -30 -32 -35 -60 -33 -26 2 -41 -5 -67 -30
-46 -45 -101 -45 -139 -1 -22 24 -34 30 -60 27 -27 -2 -34 -8 -36 -28 -6 -52
-13 -70 -28 -70 -9 0 -31 -15 -50 -34 -26 -26 -34 -42 -34 -69 0 -29 -7 -41
-37 -66 -34 -28 -44 -31 -111 -31 -68 0 -78 3 -152 45 -43 25 -82 51 -88 58
-5 7 -19 55 -31 108 -24 106 -32 117 -102 144 -39 14 -48 22 -53 48 -10 48
-30 63 -156 112 -91 35 -119 51 -123 67 -9 31 -1 38 44 38 22 0 53 6 68 14 26
14 30 13 65 -12 l37 -26 77 27 77 27 84 -26 c91 -30 106 -28 129 19 11 22 20
27 49 27 31 0 44 9 112 80 43 44 84 80 92 80 8 0 39 -20 68 -45 88 -75 104
-77 151 -18 12 15 34 33 50 39 26 11 93 102 136 185 16 32 16 34 -6 75 l-23
42 26 32 c15 17 27 41 27 54 0 32 -28 66 -66 82 -45 19 -45 46 -1 62 18 7 47
12 64 12 17 0 38 8 48 20 13 15 31 20 67 20 35 0 58 6 76 20 20 17 38 20 81
18 l55 -3 10 -39z m2126 4 c45 0 54 -5 137 -74 l89 -74 32 -114 32 -113 -26
-20 c-15 -11 -43 -37 -64 -57 -34 -35 -42 -38 -91 -38 -54 0 -74 10 -178 87
-13 10 -22 9 -45 -2 -36 -19 -43 -13 -22 19 9 14 16 33 16 42 0 9 15 34 34 55
l35 38 -17 43 c-27 67 -40 87 -72 103 -35 18 -40 51 -13 91 15 24 21 26 61 20
25 -3 66 -6 92 -6z m-1037 -92 c11 -13 16 -30 13 -44 -14 -53 35 -88 109 -77
50 6 46 9 126 -72 28 -28 29 -34 23 -82 -5 -39 -2 -57 10 -75 9 -12 16 -33 16
-45 0 -12 14 -38 30 -56 24 -28 30 -44 30 -81 0 -40 -5 -51 -30 -73 -34 -28
-40 -75 -15 -109 22 -29 19 -110 -5 -134 -31 -31 -24 -54 25 -94 l45 -37 0
-84 0 -83 -37 -13 c-21 -6 -50 -19 -65 -27 -26 -15 -30 -15 -65 5 -21 12 -44
34 -52 50 -7 15 -34 49 -59 76 -42 43 -50 47 -93 47 -40 0 -51 -4 -69 -27 -17
-22 -23 -25 -30 -13 -6 8 -10 20 -10 27 0 18 -60 83 -76 83 -8 0 -26 -7 -39
-16 -23 -15 -25 -15 -31 0 -3 9 -4 35 -2 58 3 24 -1 59 -9 80 -8 20 -13 47
-11 60 3 20 9 23 58 26 61 4 70 11 70 64 0 31 -6 42 -36 64 -19 15 -47 49 -60
76 -18 35 -38 57 -70 76 -25 15 -52 32 -60 37 -16 11 -52 181 -40 192 4 4 26
-3 49 -15 52 -27 59 -27 82 -1 17 17 17 24 7 52 -11 28 -10 34 5 45 9 6 27 12
38 12 27 0 49 24 71 75 23 58 61 87 104 80 19 -2 43 -14 53 -27z m1827 -73
c14 -8 47 -14 73 -15 43 0 53 -5 92 -42 37 -36 50 -61 84 -158 53 -147 52
-168 -2 -228 -18 -19 -19 -26 -9 -42 16 -27 16 -28 -18 -35 -41 -9 -80 -62
-80 -108 0 -46 -28 -68 -76 -60 -41 7 -74 -17 -74 -53 0 -13 -5 -26 -11 -29
-27 -17 -61 6 -251 174 -4 3 -15 44 -25 91 -17 78 -26 96 -97 199 -66 95 -83
128 -107 209 -16 52 -29 97 -29 99 0 1 9 3 21 3 12 0 49 -22 84 -50 58 -46 67
-50 116 -50 48 0 63 6 139 55 90 58 125 66 170 40z m-1485 -265 c21 -42 31
-51 67 -61 23 -6 53 -19 65 -29 19 -15 30 -17 56 -9 47 13 77 11 77 -5 0 -24
27 -43 72 -50 60 -10 78 -29 78 -86 0 -34 5 -52 20 -65 11 -10 20 -31 20 -47
0 -16 16 -60 35 -98 56 -112 39 -167 -41 -134 -25 11 -35 10 -58 -2 -16 -8
-47 -14 -71 -14 -27 0 -51 -7 -67 -20 -27 -21 -48 -12 -48 21 0 24 -23 40
-109 75 l-76 30 -3 54 c-2 29 -10 63 -18 74 -22 31 -17 59 16 91 26 25 30 36
30 85 0 49 -4 60 -30 85 -16 16 -30 37 -30 47 0 10 -9 36 -20 57 -18 36 -18
51 1 51 5 0 20 -22 34 -50z m1035 -10 c27 -37 21 -56 -19 -65 -35 -7 -47 -20
-56 -58 -7 -28 -38 -52 -54 -42 -5 3 -28 6 -50 7 -35 1 -47 -4 -77 -33 -20
-19 -42 -47 -50 -62 -17 -32 -30 -28 -39 13 -4 16 -21 41 -38 54 -28 22 -30
27 -19 51 7 14 12 43 12 65 0 21 4 41 8 44 5 3 24 -5 43 -18 23 -16 55 -25
103 -29 l69 -7 35 38 c38 40 80 70 99 71 6 1 21 -13 33 -29z m-420 -46 c0 -59
-3 -70 -30 -101 -16 -18 -30 -43 -30 -54 0 -29 49 -120 76 -142 27 -21 23 -37
-9 -37 -12 0 -37 -9 -55 -20 -18 -11 -38 -20 -46 -20 -17 0 -36 43 -36 84 0
20 -8 40 -20 51 -15 13 -20 29 -19 54 4 63 -28 98 -100 110 -54 9 -60 32 -22
80 36 45 55 51 71 21 15 -28 56 -26 75 4 14 22 19 23 50 13 27 -8 39 -7 57 6
13 9 26 16 31 16 4 1 7 -29 7 -65z m-1361 -21 c14 -16 48 -40 73 -55 35 -20
54 -40 72 -77 14 -27 39 -59 56 -71 31 -22 41 -62 18 -77 -7 -4 -35 -10 -63
-13 l-50 -5 -3 -42 c-2 -23 3 -55 12 -70 10 -21 13 -47 9 -90 -6 -61 -5 -62
21 -69 15 -3 39 -1 53 5 19 9 29 9 40 0 22 -19 43 -65 43 -94 0 -44 29 -43 69
3 23 27 44 42 59 42 29 0 109 -74 127 -117 9 -22 30 -41 64 -60 28 -15 51 -34
51 -40 0 -19 -18 -16 -50 7 -26 18 -38 20 -108 14 l-80 -7 -13 29 c-11 23 -22
30 -50 32 -37 3 -53 -6 -83 -49 -19 -28 -106 -49 -207 -49 -75 0 -89 3 -119
25 -62 45 -111 29 -130 -42 -8 -34 -24 -54 -78 -99 -39 -33 -71 -69 -76 -86
-6 -20 -17 -31 -37 -35 -15 -3 -46 -25 -70 -49 -62 -63 -84 -60 -105 14 -26
92 -27 92 -176 92 -123 0 -131 -1 -162 -25 -40 -30 -41 -30 -74 -4 -33 26 -62
19 -115 -27 -23 -19 -48 -34 -58 -34 -22 0 -257 105 -279 125 -9 8 -26 33 -39
55 l-22 40 40 39 c29 29 41 49 41 69 0 38 33 79 70 87 25 5 30 12 30 35 0 67
22 76 68 30 26 -25 38 -30 79 -30 43 0 53 4 83 35 29 29 39 35 63 29 23 -5 33
0 65 35 38 42 62 52 62 27 0 -25 30 -46 66 -46 20 0 51 -11 74 -26 45 -30 70
-26 70 10 0 37 10 57 36 67 22 8 24 14 24 73 0 80 6 96 37 96 13 0 35 12 49
27 l24 26 25 -23 c24 -23 29 -23 88 -13 49 8 68 7 89 -3 38 -19 51 -18 77 10
14 15 39 26 66 30 77 12 86 57 15 81 -41 14 -48 30 -24 56 15 17 16 24 6 39
-16 27 -15 81 3 104 8 11 15 28 15 37 0 14 10 19 48 22 26 2 51 4 55 5 5 1 21
-10 36 -25z m1861 -48 c20 -29 33 -63 37 -94 l6 -49 -56 -7 c-31 -4 -78 -3
-104 1 -43 8 -48 12 -51 38 -2 17 4 36 16 50 11 11 22 33 26 47 4 19 17 32 43
42 21 9 41 16 45 16 4 1 21 -19 38 -44z m-207 -84 c5 -5 10 -67 10 -137 l2
-129 -29 2 c-16 1 -52 7 -82 13 -46 10 -58 17 -89 58 -19 26 -49 56 -65 67
-30 20 -79 119 -66 133 16 15 61 -25 74 -65 21 -64 66 -64 98 0 27 52 64 78
103 73 19 -3 38 -9 44 -15z m266 -113 c5 -13 39 -47 75 -77 75 -61 81 -82 24
-92 -20 -3 -44 -11 -52 -18 -12 -10 -22 -10 -50 0 -35 13 -68 8 -143 -22 -16
-6 -29 -3 -47 12 -25 20 -26 25 -26 120 l0 99 105 0 c100 0 106 -1 114 -22z
m-451 -128 c17 -16 38 -30 47 -30 9 0 47 -7 86 -16 68 -15 69 -16 69 -47 0
-40 -18 -70 -27 -47 -10 25 -61 70 -79 70 -10 0 -39 -22 -64 -50 -51 -55 -79
-62 -120 -30 -14 11 -37 20 -51 20 -24 0 -28 5 -32 43 -3 23 -7 51 -9 61 -2
14 8 26 37 43 52 31 102 25 143 -17z m725 -90 c32 -12 65 -33 73 -46 31 -46
21 -76 -71 -224 -48 -78 -94 -144 -101 -147 -7 -2 -37 12 -68 32 -56 38 -63
38 -103 9 -21 -15 -23 -14 -53 35 -26 42 -37 51 -60 51 -19 0 -33 -8 -44 -25
-19 -29 -66 -34 -86 -10 -18 22 -44 19 -77 -9 l-28 -24 -40 33 c-38 33 -39 34
-21 53 10 12 16 32 14 49 -3 25 -7 28 -43 31 -74 6 -103 67 -40 84 18 4 46 26
68 53 45 53 70 57 87 15 26 -63 84 -60 96 5 6 35 17 44 30 24 9 -14 91 -2 123
18 21 14 27 13 62 -2 36 -17 40 -17 63 -1 14 9 36 16 48 16 13 1 34 7 48 15
20 11 29 11 45 1 11 -7 46 -23 78 -36z m-1376 -4 c87 -34 95 -40 107 -77 9
-28 17 -35 42 -37 19 -2 36 3 44 12 7 10 28 16 52 16 22 0 55 7 73 16 25 12
38 13 54 5 11 -6 33 -11 50 -11 27 0 31 -4 37 -36 5 -28 2 -40 -15 -58 -33
-35 -28 -85 11 -118 l33 -27 -26 -28 c-15 -16 -32 -51 -39 -80 -7 -32 -23 -64
-41 -82 -16 -17 -29 -36 -29 -41 0 -10 -121 -70 -142 -70 -6 0 -24 12 -41 26
-25 21 -37 24 -66 19 -52 -10 -60 -20 -63 -83 l-3 -56 -45 -9 c-25 -5 -49 -13
-55 -18 -29 -29 -75 9 -75 62 0 51 -18 65 -90 73 -68 8 -87 27 -51 52 13 10
21 26 21 44 0 24 10 36 60 70 48 32 61 48 70 79 9 34 16 41 63 57 l52 19 3 98
c3 107 7 98 -67 155 -16 12 -22 25 -18 35 8 22 22 21 94 -7z m538 -72 c19 -13
25 -25 25 -54 0 -30 6 -44 31 -64 18 -15 43 -26 60 -26 34 0 38 -19 9 -45 -29
-26 -25 -42 19 -69 22 -14 42 -30 46 -36 10 -17 51 -11 70 10 22 24 38 25 55
5 7 -9 29 -15 50 -15 31 0 44 6 65 33 25 30 27 31 38 13 47 -74 54 -81 81 -84
16 -2 36 4 46 13 18 16 21 15 65 -15 25 -18 49 -38 51 -45 3 -7 -4 -28 -15
-46 -42 -68 -19 -109 59 -109 71 0 150 -19 157 -38 8 -19 -65 -162 -83 -162
-6 0 -17 7 -25 16 -8 10 -23 14 -43 11 -17 -2 -41 0 -53 6 -16 7 -29 5 -55
-11 -20 -12 -61 -23 -103 -27 -101 -10 -114 -14 -121 -41 -7 -28 -10 -29 -58
-9 -23 10 -36 22 -36 34 0 26 -24 43 -57 39 -21 -2 -33 -12 -47 -41 -14 -29
-22 -36 -35 -31 -9 4 -34 9 -56 12 -26 3 -75 26 -140 66 -91 55 -100 64 -103
94 -3 25 5 44 32 81 20 27 36 56 36 64 0 8 -14 27 -32 42 -31 27 -32 27 -19
73 7 26 23 58 37 73 32 33 30 54 -6 81 -36 26 -40 66 -9 94 18 16 20 26 15 65
-8 62 4 73 49 43z m-980 -264 c15 -30 16 -30 104 -30 71 0 93 -4 111 -18 l23
-18 -42 -33 c-30 -24 -41 -40 -41 -60 0 -14 -9 -34 -21 -44 -13 -12 -19 -27
-17 -45 2 -22 9 -28 41 -34 20 -5 54 -11 75 -15 35 -8 37 -10 40 -48 2 -30 10
-46 34 -67 l30 -26 -21 -30 c-12 -17 -29 -53 -38 -81 -19 -60 -9 -81 42 -81
29 0 34 -5 49 -43 23 -61 21 -75 -21 -114 l-38 -34 25 -46 c20 -37 41 -57 100
-93 85 -52 102 -80 47 -80 -40 0 -98 -22 -116 -44 -17 -21 -6 -51 25 -64 14
-7 56 -12 95 -12 82 0 93 -12 57 -62 -18 -26 -23 -46 -23 -92 0 -55 -2 -60
-36 -88 -35 -28 -35 -28 -80 -13 -28 10 -61 14 -89 11 -25 -3 -70 -2 -100 2
-53 7 -55 8 -71 52 -15 40 -15 47 -2 62 8 9 13 27 11 40 -2 19 -10 23 -46 26
-65 5 -92 -17 -92 -73 0 -53 -24 -74 -62 -54 -29 16 -323 6 -343 -11 -11 -9
-15 -33 -15 -80 l0 -67 -37 -7 c-77 -12 -76 -13 -69 52 6 50 4 62 -15 85 -11
15 -19 31 -17 36 2 5 26 24 53 43 36 24 51 40 53 60 4 34 -31 103 -63 124 -24
16 -29 15 -98 -10 -89 -32 -94 -32 -161 1 -74 36 -99 25 -152 -65 -39 -66 -39
-68 -44 -192 l-5 -125 -95 3 c-151 4 -143 -1 -135 90 8 86 19 102 73 102 18 0
41 4 51 10 20 10 121 225 121 257 0 12 -49 86 -109 166 l-108 144 -5 104 c-3
57 -3 109 -1 115 2 7 39 24 81 39 42 15 96 38 120 51 29 16 52 21 75 17 29 -4
37 0 75 42 24 25 60 51 80 58 28 9 38 19 45 44 6 21 31 49 73 83 51 41 66 60
79 100 15 44 20 50 44 50 15 0 36 -9 45 -19 27 -30 168 -39 263 -16 40 9 79
23 86 30 6 7 22 24 34 39 30 34 49 33 68 -4z m905 -195 c10 -12 8 -21 -9 -49
-12 -18 -28 -39 -36 -46 -9 -8 -15 -30 -15 -56 0 -48 -6 -42 176 -157 38 -23
42 -29 42 -69 1 -24 2 -54 3 -68 1 -14 1 -38 0 -55 -2 -86 5 -115 33 -141 24
-23 27 -31 20 -58 -8 -35 -8 -57 3 -171 7 -66 14 -91 43 -140 21 -34 44 -61
55 -64 36 -6 43 -21 50 -102 8 -86 -3 -120 -25 -80 -10 20 -18 22 -78 19 -67
-3 -67 -3 -70 -34 -3 -27 -6 -30 -30 -26 -19 2 -34 -4 -50 -21 -21 -22 -22
-29 -13 -62 8 -29 7 -44 -5 -66 -8 -16 -16 -29 -19 -29 -18 0 -116 46 -150 71
-40 29 -42 29 -78 14 -20 -8 -49 -15 -65 -15 -15 0 -37 -6 -48 -14 -16 -12
-22 -12 -34 -1 -18 15 -78 26 -142 25 -57 -1 -68 14 -68 92 l0 54 35 -4 c29
-4 43 2 81 33 46 38 46 39 41 89 -4 42 -1 59 20 94 13 23 23 53 21 65 -3 20
-10 22 -89 27 -83 5 -126 21 -113 41 9 16 75 39 110 39 36 0 59 26 48 54 -3 8
-43 36 -89 62 -100 56 -133 108 -85 134 10 6 25 28 31 49 10 33 9 46 -7 86
-22 59 -38 75 -75 75 -29 0 -41 22 -19 35 6 3 10 17 10 30 0 13 19 44 45 73
36 40 53 51 87 56 59 10 68 20 68 81 0 39 4 54 16 59 30 11 51 6 74 -19 13
-14 31 -25 40 -25 31 0 170 69 177 87 15 44 58 58 83 28z m821 -277 c53 2 75
-25 58 -72 -21 -57 -4 -77 120 -146 61 -34 120 -69 131 -78 20 -17 28 -49 45
-190 l6 -53 -94 -97 -94 -97 -7 -115 c-8 -131 -6 -138 58 -238 25 -39 46 -78
46 -86 0 -9 -12 -34 -26 -56 -23 -35 -26 -47 -21 -91 5 -43 3 -52 -15 -67 -11
-9 -36 -30 -55 -46 -20 -17 -47 -30 -66 -31 -18 -1 -39 -5 -48 -9 -35 -16 -29
25 11 81 22 31 40 64 40 73 0 23 -20 40 -47 40 -12 0 -30 11 -40 26 -49 69
-65 84 -93 84 -34 0 -71 41 -63 70 8 29 -10 45 -82 74 l-65 26 -75 -37 c-87
-43 -110 -38 -69 18 24 32 25 38 18 119 -8 100 -16 120 -49 120 -18 0 -32 11
-51 42 -50 78 -55 102 -56 245 0 120 -2 135 -19 146 -11 7 -19 23 -19 40 0 16
-4 36 -10 46 -6 12 -6 31 1 56 8 27 7 45 -1 65 -24 57 15 89 71 60 26 -14 49
-1 68 41 19 40 43 44 51 10 6 -28 82 -74 115 -69 11 2 25 14 32 28 13 26 67
41 141 40 19 0 45 9 60 20 16 13 32 18 41 13 9 -4 32 -6 52 -5z m-1617 -803
c-15 -22 -15 -28 1 -76 14 -42 15 -56 6 -71 -7 -11 -15 -41 -18 -68 l-6 -48
82 -96 c93 -110 100 -137 56 -205 -32 -47 -122 -111 -158 -111 -38 0 -59 -26
-55 -69 3 -34 5 -36 43 -39 22 -1 85 -12 140 -23 119 -23 137 -38 129 -103 -5
-32 -2 -45 10 -55 14 -12 32 -9 126 18 117 35 147 36 164 9 8 -13 5 -24 -13
-48 -17 -24 -23 -46 -24 -93 l-2 -62 -64 -32 c-87 -45 -93 -50 -89 -92 3 -33
15 -45 166 -166 137 -109 168 -139 193 -185 22 -39 48 -68 92 -100 100 -73 85
-125 -43 -150 -75 -14 -90 -23 -90 -57 0 -21 12 -30 75 -59 99 -46 126 -50
164 -28 17 10 32 16 34 13 2 -2 7 -29 10 -59 l7 -56 -70 -84 c-49 -59 -80
-109 -102 -162 l-31 -77 -81 -3 c-100 -4 -96 -7 -194 164 -82 143 -89 148
-202 148 -37 0 -95 3 -129 6 l-62 7 -40 67 c-64 109 -57 105 -210 90 -139 -13
-148 -11 -149 31 0 19 17 24 104 35 99 11 123 64 66 143 -28 39 -30 47 -29
120 2 77 2 79 -34 123 -20 25 -37 50 -37 55 0 6 18 54 40 107 22 53 40 105 40
115 0 11 -34 61 -76 113 -113 137 -107 125 -84 193 11 32 20 67 20 77 0 11
-30 62 -66 114 l-65 94 -10 182 c-6 101 -11 221 -12 268 l-2 85 160 0 c88 -1
169 -4 180 -9 32 -11 75 36 75 84 0 45 5 50 47 50 33 0 33 0 17 -25z m258
-237 c9 -89 27 -109 97 -108 69 2 110 -6 130 -24 22 -20 45 -20 61 -1 7 8 23
15 35 15 12 0 39 7 59 15 35 15 37 15 85 -19 27 -18 61 -36 75 -40 22 -5 26
-12 26 -46 0 -28 -5 -42 -18 -49 -31 -16 -53 -91 -50 -163 l3 -63 51 -1 c44
-1 61 -8 110 -43 31 -22 66 -41 76 -41 10 0 31 -9 47 -21 27 -20 30 -20 81 -5
30 9 61 16 70 16 9 0 40 -27 68 -61 47 -55 51 -64 46 -98 -5 -31 -2 -42 24
-69 17 -18 38 -32 49 -32 10 0 26 -9 36 -20 9 -11 23 -20 31 -20 8 0 24 -13
34 -28 11 -15 43 -43 71 -62 60 -41 68 -75 26 -114 -29 -27 -32 -52 -9 -85 14
-20 22 -22 55 -17 33 5 41 3 55 -19 15 -23 15 -26 -6 -52 -18 -24 -21 -36 -15
-79 5 -46 3 -55 -20 -83 l-27 -31 -130 0 c-71 0 -137 4 -147 9 -10 6 -53 40
-97 76 -43 36 -89 68 -102 72 -40 10 -70 -12 -82 -60 -9 -34 -25 -55 -77 -102
l-65 -58 4 -100 3 -99 -35 -24 c-19 -13 -40 -24 -47 -24 -27 0 -163 63 -163
76 0 14 9 18 92 34 69 14 108 52 108 105 0 31 -7 39 -68 81 -53 36 -75 59 -98
102 -24 46 -54 75 -192 184 -197 157 -199 162 -87 218 l70 35 5 65 c4 51 11
73 33 101 15 20 27 41 27 47 0 16 -59 62 -79 62 -10 0 -62 -13 -117 -30 -130
-39 -128 -39 -120 13 5 34 2 47 -16 70 -20 24 -40 32 -136 52 -62 14 -122 24
-135 22 -17 -2 -22 3 -22 23 0 19 6 25 32 31 46 9 141 80 174 131 20 30 29 55
29 85 0 38 -8 51 -80 136 -83 98 -91 118 -70 173 l11 27 82 -6 c46 -3 89 -2
97 3 24 15 33 -5 42 -82z m846 32 c6 -56 14 -71 40 -81 23 -9 38 -5 102 26
l75 37 58 -26 c51 -22 57 -28 52 -49 -8 -29 36 -87 65 -87 33 0 49 -11 85 -61
25 -35 44 -51 65 -56 17 -3 30 -10 30 -15 0 -5 -18 -35 -41 -66 -35 -50 -39
-61 -30 -84 11 -29 35 -38 69 -26 13 4 35 5 48 2 20 -5 32 1 62 32 20 22 49
49 64 61 24 20 26 26 21 80 -4 53 -2 61 24 91 l28 32 189 -73 c183 -71 190
-75 202 -108 19 -52 16 -110 -11 -231 -14 -61 -25 -119 -25 -129 0 -10 24 -70
54 -132 60 -126 65 -130 169 -142 34 -4 57 -11 57 -18 -1 -7 -11 -31 -23 -55
-17 -31 -54 -67 -137 -130 -65 -50 -132 -111 -154 -140 -42 -56 -73 -67 -80
-30 -3 13 -7 61 -10 108 -4 72 -8 87 -26 102 -12 10 -31 18 -41 18 -10 0 -84
-27 -163 -60 -80 -33 -150 -60 -157 -60 -7 0 -32 21 -55 46 -39 41 -45 45 -77
39 -27 -5 -36 -3 -41 11 -4 9 0 24 8 33 9 9 22 34 31 54 20 48 11 65 -55 107
-28 18 -58 46 -66 61 -8 16 -20 29 -27 29 -7 0 -28 11 -47 25 -19 14 -42 25
-52 25 -28 0 -50 43 -43 83 6 31 2 40 -55 105 -34 40 -69 72 -78 72 -9 0 -43
-8 -76 -17 -59 -16 -60 -16 -74 5 -9 14 -25 22 -44 22 -18 0 -49 15 -84 41
-47 35 -61 40 -97 37 l-42 -3 -3 45 c-5 61 15 126 44 145 16 10 24 25 24 45 0
20 8 35 24 45 34 23 54 72 49 121 -5 45 8 64 32 44 8 -6 24 -10 37 -8 19 2 23
9 22 38 0 41 10 51 51 48 24 -2 31 -8 33 -28z"/>
</g>
</svg>
